<?xml version="1.0" encoding="UTF-8"?>
<svg xmlns="http://www.w3.org/2000/svg" xmlns:xlink="http://www.w3.org/1999/xlink" viewBox="0 0 500 500">
  <defs>
    <radialGradient id="Unbenannter_Verlauf_3" data-name="Unbenannter Verlauf 3" cx="231.24" cy="237.12" fx="231.24" fy="237.12" r="202.83" gradientUnits="userSpaceOnUse">
      <stop offset="0" stop-color="#1f4975"/>
      <stop offset="1" stop-color="#14253a"/>
      <stop offset="1" stop-color="#14253a"/>
    </radialGradient>
    <clipPath id="clippath">
      <path d="M424.45,265.56l-14.35,3.63c.52-.13,1.02-.34,1.49-.62,1.74-1.05,2.91-3,3.33-5.46.88-5.3-1.97-11.33-6.35-13.43l14.35-3.63c4.38,2.1,7.23,8.13,6.35,13.43-.42,2.45-1.59,4.41-3.33,5.46-.47.28-.97.49-1.49.62Z" fill="none"/>
    </clipPath>
    <clipPath id="clippath-1">
      <path d="M425.46,269.59l-14.35,3.63c-2.01.51-4.2.24-6.36-.78-6.02-2.9-9.93-11.16-8.72-18.43l14.35-3.63c-1.21,7.27,2.69,15.52,8.72,18.43,2.16,1.03,4.35,1.29,6.36.78Z" fill="none"/>
    </clipPath>
    <clipPath id="clippath-2">
      <path d="M196.42,278.13l11.15.21c-1.31-.02-2.64.31-3.94,1.03-5.28,2.96-7.95,11.47-5.93,18.96,1.52,5.64,5.31,9.12,9.35,9.19l-11.15-.21c-4.04-.08-7.82-3.55-9.35-9.19-2.02-7.5.65-16.01,5.93-18.96,1.3-.73,2.63-1.06,3.94-1.03Z" fill="none"/>
    </clipPath>
    <linearGradient id="Unbenannter_Verlauf_4" data-name="Unbenannter Verlauf 4" x1="307.43" y1="256.53" x2="332.69" y2="256.53" gradientTransform="translate(114.97 -98.55) rotate(22.44)" gradientUnits="userSpaceOnUse">
      <stop offset=".46" stop-color="#e88a0f"/>
      <stop offset=".94" stop-color="#fcd006"/>
    </linearGradient>
    <linearGradient id="Unbenannter_Verlauf_5" data-name="Unbenannter Verlauf 5" x1="280.27" y1="239.22" x2="311.95" y2="239.22" gradientTransform="translate(96.7 -85.76) rotate(22.44)" gradientUnits="userSpaceOnUse">
      <stop offset=".58" stop-color="#e88a0f"/>
      <stop offset=".91" stop-color="#fcd006"/>
    </linearGradient>
    <clipPath id="clippath-3">
      <ellipse cx="277.97" cy="249.51" rx="12.46" ry="24.78" transform="translate(-67.96 108.6) rotate(-19.75)" fill="none"/>
    </clipPath>
    <clipPath id="clippath-4">
      <ellipse cx="312.03" cy="262.15" rx="9.71" ry="19.31" transform="translate(-76.45 138.99) rotate(-22.44)" fill="none"/>
    </clipPath>
    <clipPath id="clippath-5">
      <path d="M106.64,270.66l-10.17,16.84c.14-.23.26-.47.37-.73,1.95-4.5-1.11-10.94-6.77-14.28l10.17-16.84c5.67,3.34,8.72,9.78,6.77,14.28-.11.26-.23.5-.37.73Z" fill="none"/>
    </clipPath>
    <clipPath id="clippath-6">
      <path d="M110.82,273.27l-10.17,16.84c-1.47,2.43-3.98,4.01-7.17,4.5-3.7.56-7.86-.38-11.69-2.67-7.8-4.63-11.96-13.42-9.31-19.64l10.17-16.84c-2.65,6.22,1.52,15.01,9.31,19.64,3.83,2.29,7.99,3.24,11.69,2.67,3.2-.49,5.71-2.06,7.17-4.5Z" fill="none"/>
    </clipPath>
    <clipPath id="clippath-7">
      <path d="M196.53,272.33l11.15.21c5.65.11,10.93,4.97,13.07,12.89,2.82,10.43-.91,22.31-8.33,26.47-1.8,1.01-3.66,1.47-5.47,1.43l-11.15-.21c1.82.03,3.67-.42,5.47-1.43,7.42-4.16,11.15-16.03,8.33-26.47-2.14-7.92-7.42-12.78-13.07-12.89Z" fill="none"/>
    </clipPath>
  </defs>
  <g id="bg">
    <path d="M181.79,419.07c-22.98-5.74-139.34-34.83-158.83-111.76-13.33-52.59,31.52-62.43,47.79-184.65,3.09-23.22,5.26-51.58,26.69-67.76,19.96-15.08,47.72-12.84,67.48-11.25,33.58,2.71,39.52,13.04,68.33,17.06,48.51,6.77,61.76-15.6,93.27-11.23,57.68,8,93.15,94.02,104.6,138.15,6.19,23.86,33.03,127.28-31.1,195.45-68.96,73.31-185.14,44.26-218.23,35.99Z" fill="url(#Unbenannter_Verlauf_3)"/>
    <g isolation="isolate">
      <polygon points="76.27 58.83 68.91 50.86 88.52 28.31 97.44 34.48 76.27 58.83" fill="#1d426a"/>
      <polygon points="120.58 54.9 99.71 78.91 76.27 58.83 97.44 34.48 120.58 54.9" fill="#101319"/>
      <polygon points="90.58 98.77 99.71 78.91 76.27 58.83 67.43 78.35 90.58 98.77" fill="#1d426a"/>
      <polygon points="147.82 46.73 120.58 54.9 97.44 34.72 124.68 26.31 147.82 46.73" fill="#1d426a"/>
    </g>
    <polygon points="106.21 471.13 89.53 58.4 109.21 57.14 446.06 471.13 106.21 471.13" fill="#f7e494" opacity=".3"/>
    <circle cx="99.33" cy="57.14" r="9.88" fill="#f7e494"/>
    <ellipse cx="276.14" cy="471.13" rx="169.93" ry="15.88" fill="#fcd006"/>
  </g>
  <g id="Paxton-Juggling">
    <g id="body">
      <g id="arm-r">
        <g id="hand-r">
          <g isolation="isolate">
            <polygon points="422.92 246.05 408.57 249.68 409.53 245.87 423.87 242.24 422.92 246.05" fill="#aab0c2"/>
            <g isolation="isolate">
              <g clip-path="url(#clippath)">
                <path d="M424.45,265.56l-14.35,3.63c.52-.13,1.02-.34,1.49-.62,1.74-1.05,2.91-3,3.33-5.46.88-5.3-1.97-11.33-6.35-13.43l14.35-3.63c4.38,2.1,7.23,8.13,6.35,13.43-.42,2.45-1.59,4.41-3.33,5.46-.47.28-.97.49-1.49.62" fill="#435260"/>
              </g>
            </g>
            <g isolation="isolate">
              <g clip-path="url(#clippath-1)">
                <path d="M425.46,269.59l-14.35,3.63c-2.01.51-4.2.24-6.36-.78-6.02-2.9-9.93-11.16-8.72-18.43l14.35-3.63c-1.21,7.27,2.69,15.52,8.72,18.43,2.16,1.03,4.35,1.29,6.36.78" fill="#566576"/>
              </g>
            </g>
            <path d="M423.87,242.24c6.02,2.9,9.93,11.16,8.72,18.43-.6,3.59-2.32,6.43-4.89,7.98-2.55,1.53-5.6,1.58-8.6.15-6.02-2.9-9.93-11.16-8.72-18.43l3.36,1.21c-.89,5.27,1.96,11.3,6.35,13.43,2.04.97,4.13.96,5.85-.07s2.91-3,3.33-5.46c.88-5.3-1.97-11.33-6.35-13.43l.95-3.81Z" fill="#778292"/>
          </g>
        </g>
        <g id="lower-arm-r">
          <g>
            <path d="M409.73,281.64c6.84-13.99-6.52-31.75-17.89-25.78-5.45,2.86-16.74,10.02-16.74,10.02-30.59,19.43-8.77,48.93,19.11,27.95,2.9-2,5.98-3.79,8.87-5.79,2.49-1.76,5.09-3.72,6.65-6.4Z" fill="#778292"/>
            <path d="M366.47,298.86c.37.28.76.53,1.17.74-.38-.25-.79-.49-1.17-.74Z" fill="#838996"/>
          </g>
          <ellipse cx="380.32" cy="283.43" rx="2.66" ry="3.11" transform="translate(-93.99 285.6) rotate(-36.96)" fill="#566576"/>
        </g>
        <g id="upper-arm-r">
          <g>
            <path d="M368.21,291.09c-3.72,1.94-7.65,3.51-11.76,4.37" fill="none" stroke="#aab0c2" stroke-linecap="round" stroke-miterlimit="10" stroke-width="14.19"/>
            <g>
              <polyline points="356.39 295.47 355.11 295.74 353.8 295.93" fill="none" stroke="#778292" stroke-linecap="round" stroke-miterlimit="10" stroke-width="14.19"/>
              <path d="M355.09,295.75c-3.84.67-7.78.76-11.66.39" fill="none" stroke="#aab0c2" stroke-linecap="round" stroke-miterlimit="10" stroke-width="14.19"/>
            </g>
            <g>
              <line x1="343.38" y1="296.13" x2="340.77" y2="295.79" fill="none" stroke="#778292" stroke-linecap="round" stroke-miterlimit="10" stroke-width="14.19"/>
              <path d="M342.05,295.96l-1.92-.25c-.64-.09-1.27-.23-1.9-.35l-1.9-.36-1.88-.46" fill="none" stroke="#aab0c2" stroke-linecap="round" stroke-miterlimit="10" stroke-width="14.19"/>
            </g>
          </g>
        </g>
        <g id="Ebene_26" data-name="Ebene 26">
          <circle cx="335.5" cy="294.79" r="2.47" fill="#ff000d"/>
        </g>
      </g>
      <g id="Ebene_27" data-name="Ebene 27">
        <circle cx="261.8" cy="364.15" r="3.31" fill="#ff000d"/>
      </g>
      <g id="body-2" data-name="body">
        <path d="M361.22,353.57l-88.78,17.99-102.64,6.68s80.25-31.65,93.65-32.24c33.09-1.46,97.77,7.57,97.77,7.57Z" fill="#a56900"/>
        <path d="M239.36,188.95c-39.88,31.51-75.88,68.55-75.88,68.55,8.43,79,6.32,120.75,6.32,120.75,54.19-18.57,93.65-32.24,93.65-32.24-13.42-98.93-24.1-157.05-24.1-157.05Z" fill="#fcd006"/>
        <path d="M239.36,188.95s61.01,37.65,85.88,55.57c28.58,69.86,35.99,109.05,35.99,109.05-54.22-7.72-97.77-7.57-97.77-7.57-10.97-77.08-24.1-157.05-24.1-157.05Z" fill="#fab10b"/>
        <path d="M282.86,286.53c7.07,3.27,31.04,8.02,41.04,6.97-4.36,12.15-12.81,18.22-24.87,14.24-12.06-3.99-16.07-15.43-16.17-21.21Z" fill="#080604"/>
        <ellipse cx="201.52" cy="293.03" rx="14.38" ry="7.46" transform="translate(-110.23 464.18) rotate(-84.25)" fill="#080604"/>
        <g isolation="isolate">
          <g clip-path="url(#clippath-2)">
            <path d="M196.42,278.13l11.15.21c-1.31-.02-2.64.31-3.94,1.03-5.28,2.96-7.95,11.47-5.93,18.96,1.52,5.64,5.31,9.12,9.35,9.19l-11.15-.21c-4.04-.08-7.82-3.55-9.35-9.19-2.02-7.5.65-16.01,5.93-18.96,1.3-.73,2.63-1.06,3.94-1.03" fill="#080604"/>
          </g>
        </g>
        <path d="M191.03,273.77c7.42-4.16,15.74.97,18.57,11.45,2.82,10.43-.91,22.31-8.33,26.47-7.39,4.14-15.71-.99-18.53-11.42-2.83-10.48.9-22.35,8.29-26.49ZM199.81,306.29c5.31-2.97,7.98-11.48,5.97-18.94-2.02-7.5-7.99-11.17-13.3-8.2-5.28,2.96-7.95,11.47-5.93,18.96,2.01,7.45,7.97,11.13,13.25,8.17" fill="#778292"/>
        <ellipse cx="312.84" cy="260.74" rx="10.56" ry="21" transform="translate(-73.08 130.67) rotate(-21.18)" fill="url(#Unbenannter_Verlauf_4)"/>
        <ellipse cx="279.05" cy="248.4" rx="13.24" ry="26.34" transform="translate(-66.51 106.41) rotate(-19.34)" fill="url(#Unbenannter_Verlauf_5)"/>
        <ellipse cx="312.03" cy="262.15" rx="9.71" ry="19.31" transform="translate(-76.45 138.99) rotate(-22.44)" fill="#fff"/>
        <ellipse cx="277.97" cy="249.51" rx="12.46" ry="24.78" transform="translate(-67.96 108.6) rotate(-19.75)" fill="#fff"/>
        <g clip-path="url(#clippath-3)">
          <ellipse cx="274.9" cy="239.13" rx="11.69" ry="14.34" transform="translate(-43.55 62.09) rotate(-11.95)" fill="#080604"/>
        </g>
        <g clip-path="url(#clippath-4)">
          <ellipse cx="309.31" cy="254.29" rx="9.09" ry="11.3" transform="translate(-48.88 75.29) rotate(-12.87)" fill="#080604"/>
        </g>
        <path d="M316.84,293.51l-2.61,5.64c-5.05.58-15.44.27-23.15-3.48-3.71-1.81-6.62-5.55-8.21-9.15,11.75,4.91,33.96,6.99,33.96,6.99Z" fill="#fff"/>
        <path d="M292.59,311.47c4.92,2.52,9.91,3.7,15.43,3.73-4.64,3.82-13.05,1.8-15.43-3.73h0Z" fill="#95461d"/>
        <path d="M290.8,283.77c-4.51-.19-8.61.65-12.71,2.51,2.13-4.42,9.06-5.79,12.71-2.51h0Z" fill="#95461d"/>
        <ellipse cx="234.52" cy="203.68" rx="2.87" ry="3.39" transform="translate(-28.46 38.38) rotate(-8.82)" fill="#fab10b"/>
        <ellipse cx="170.16" cy="260.81" rx="2.82" ry="3.39" transform="translate(-18.96 13.41) rotate(-4.27)" fill="#fab10b"/>
        <ellipse cx="176.5" cy="367.53" rx="2.71" ry="3.39" transform="translate(-15.74 7.98) rotate(-2.48)" fill="#fab10b"/>
        <ellipse cx="254.77" cy="339.87" rx="2.77" ry="3.39" transform="translate(-49.12 43.1) rotate(-8.82)" fill="#fab10b"/>
      </g>
      <g id="cheeks">
        <ellipse cx="317.16" cy="283.26" rx="5.13" ry="11.23" transform="translate(15.12 582.58) rotate(-86.51)" fill="#fab10b"/>
        <path d="M297.89,278.49c.39-3.61-5.71-7.24-13.62-8.1-7.92-.86-14.65,1.37-15.04,4.99-.39,3.61,6.42,4.54,14.33,5.39,7.92.86,13.94,1.33,14.33-2.29Z" fill="#fab10b"/>
      </g>
      <g id="arm-l">
        <g id="upper-arm-l">
          <g>
            <path d="M204.84,292.41c-6.35,1.2-12.76,2.01-19.2,2.59" fill="none" stroke="#aab0c2" stroke-linecap="round" stroke-miterlimit="10" stroke-width="17.96"/>
            <g>
              <path d="M185.56,295c-1.34.13-2.69.24-4.04.32" fill="none" stroke="#778292" stroke-linecap="round" stroke-miterlimit="10" stroke-width="17.96"/>
              <path d="M183.51,295.19c-5.98.47-11.99.72-17.99.68" fill="none" stroke="#aab0c2" stroke-linecap="round" stroke-miterlimit="10" stroke-width="17.96"/>
            </g>
            <g>
              <path d="M165.43,295.87c-1.35,0-2.7,0-4.05-.07" fill="none" stroke="#778292" stroke-linecap="round" stroke-miterlimit="10" stroke-width="17.96"/>
              <path d="M163.37,295.86c-3.97-.11-7.94-.27-11.89-.76" fill="none" stroke="#aab0c2" stroke-linecap="round" stroke-miterlimit="10" stroke-width="17.96"/>
            </g>
          </g>
          <g id="lower-arm-l">
            <g>
              <g>
                <path d="M159.63,294.62c.81-19.36-20.37-27.29-35.22-33.59-7.93-3.54-17.91-4.28-24.61,2.11-14.77,13.6-14.5,39.67,7.94,44.68,0,0,0,0,0,0,0,0,0,0,0,0,0,0,0,0,0,0,3.96,1.22,8.06,2.12,12.03,3.33t0,0s0,0,0,0c0,0,0,0,0,0,15.78,4.43,38.18,2.58,39.83-16.53Z" fill="#778292"/>
                <ellipse cx="102.86" cy="279.89" rx="15.57" ry="9.95" transform="translate(-195.26 273.32) rotate(-68.56)" fill="#435260"/>
              </g>
              <ellipse cx="142.51" cy="296.28" rx="4.21" ry="3.36" transform="translate(-184.35 331.64) rotate(-70.49)" fill="#566576"/>
            </g>
            <g id="hand-l">
              <g isolation="isolate">
                <polygon points="100.25 255.65 90.08 272.49 91.92 269.33 102.09 252.49 100.25 255.65" fill="#454b55"/>
                <g isolation="isolate">
                  <g clip-path="url(#clippath-5)">
                    <g isolation="isolate">
                      <path d="M106.64,270.66l-10.17,16.84c.14-.23.26-.47.37-.73,1.95-4.5-1.11-10.94-6.77-14.28l10.17-16.84c5.67,3.34,8.72,9.78,6.77,14.28-.11.26-.23.5-.37.73" fill="#5e6773"/>
                    </g>
                  </g>
                </g>
                <g isolation="isolate">
                  <g clip-path="url(#clippath-6)">
                    <path d="M110.82,273.27l-10.17,16.84c-1.47,2.43-3.98,4.01-7.17,4.5-3.7.56-7.86-.38-11.69-2.67-7.8-4.63-11.96-13.42-9.31-19.64l10.17-16.84c-2.65,6.22,1.52,15.01,9.31,19.64,3.83,2.29,7.99,3.24,11.69,2.67,3.2-.49,5.71-2.06,7.17-4.5" fill="#566576"/>
                  </g>
                </g>
                <path d="M102.09,252.49c7.8,4.63,11.96,13.42,9.31,19.64-1.32,3.07-4.09,5.07-7.75,5.63-3.7.56-7.86-.38-11.69-2.67-7.8-4.63-11.96-13.42-9.31-19.64l4.35,2.21c-1.91,4.49,1.14,10.93,6.77,14.28,2.66,1.58,5.52,2.13,7.94,1.76,2.42-.37,4.41-1.66,5.31-3.78,1.95-4.5-1.11-10.94-6.77-14.28l1.84-3.15Z" fill="#aab0c2"/>
              </g>
            </g>
          </g>
        </g>
        <g id="Ebene_25" data-name="Ebene 25">
          <circle cx="213.68" cy="291.52" r="3.14" fill="#ff000d"/>
        </g>
      </g>
      <g id="shoulder-l">
        <g isolation="isolate">
          <g clip-path="url(#clippath-7)">
            <path d="M196.53,272.33l11.15.21c5.65.11,10.93,4.97,13.07,12.89,2.82,10.43-.91,22.31-8.33,26.47-1.8,1.01-3.66,1.47-5.47,1.43l-11.15-.21c1.82.03,3.67-.42,5.47-1.43,7.42-4.16,11.15-16.03,8.33-26.47-2.14-7.92-7.42-12.78-13.07-12.89" fill="#566576"/>
          </g>
        </g>
        <path d="M205.78,287.35c1.85,6.86-.29,14.56-4.78,18.07l3.1,4.1c5.48-5.27,7.93-15.31,5.5-24.31-1.2-4.44-3.42-7.85-6.11-10.07l-2.89,4.37c2.3,1.52,4.2,4.22,5.18,7.84Z" fill="#778292"/>
      </g>
    </g>
    <g id="leg-r">
      <g id="Ebene_28" data-name="Ebene 28">
        <circle cx="309.58" cy="437.28" r="2.62" fill="#ff000d"/>
      </g>
      <g>
        <path d="M327.43,427.18c1.21,2.39-.83,4.18-.83,4.18l-12.52,5.61-1.67-4.56s6.11-8.1,6.29-8.46,6.05-1.53,6.05-1.53l2.68,4.77Z" fill="#566576"/>
        <path d="M307.64,397.41c3.18.37,12.81,13.38,20.05,30.37-5.19-1.4-10.96,1.72-13.47,6.08-5.24-18.02-9.31-25.66-12.63-28.91s6.06-7.53,6.06-7.53Z" fill="#778292"/>
        <path d="M292.81,403.63c-3.35,8.75-7.34,31.03,1.85,51.75,12.29-7.65,17.59-17.45,19.54-21.52-4.92-18.22-8.33-24.79-12.6-29.56s-8.79-.66-8.79-.66Z" fill="#aab0c2"/>
        <polygon points="276.69 362.9 291.21 401.48 306.96 393.86 293.59 358.51 276.69 362.9" fill="#aab0c2"/>
        <polygon points="281.99 360.79 297.35 399.26 306.96 393.86 293.59 358.51 281.99 360.79" fill="#778292"/>
        <path d="M276.14,359.54c0,11.82,17.55,11.08,17.55,0,0-8.68-17.55-7.2-17.55,0Z" fill="#080604"/>
        <circle cx="299.38" cy="398.26" r="8.77" fill="#080604"/>
        <path id="path190" d="M299.35,439.38c.04,1.94,1.28,3.41,2.78,3.28,1.5-.13,2.69-1.81,2.65-3.75-.04-1.94-1.28-3.41-2.78-3.28-1.5.13-2.69,1.81-2.65,3.75" fill="#778292"/>
      </g>
    </g>
    <g id="foot-r">
      <path d="M364.81,430.74c1.76.07,5.62,2.26,5.01,5.51s-66.92,23.08-66.92,23.08c0,0-7.95,2.56-8.45.38s-.68-5.75,1.51-6.88,33.02-15.95,33.02-15.95l19.39-8.19h9.51l6.93,2.05Z" fill="#fff"/>
      <path d="M313.91,434.47c17.51-10.01,39.14-16.92,50.9-3.73-8.37-.42-14.39.08-33.22,9.71-18.83,9.62-31.05,13.35-34.06,13.03s11.22-15,11.22-15l5.17-4Z" fill="#080604"/>
      <path d="M369.3,438.48c-1.4,2.61-17.5,19.98-40.58,21.14-19.29.97-29.58,1.23-32.12,1.23s-3.02-2.04-.49-2.29c10.13-.98,28.67-8.74,36.75-12.99,8.09-4.25,21.02-9.95,28.75-11.19,7.09-1.14,9.41.88,7.68,4.1Z" fill="#080604"/>
    </g>
    <g id="leg-l">
      <g id="Ebene_29" data-name="Ebene 29">
        <circle cx="242.02" cy="441.98" r="2.08" fill="#ff000d"/>
      </g>
      <g>
        <polygon points="225.84 438.85 228.09 433.73 241.07 435.14 249.42 439.22 248.61 444.01 234.78 444.17 225.07 440.09 225.84 438.85" fill="#778292"/>
        <path d="M245.47,403.82c8.47,10.7,12.5,31.24,12.71,45.11-7.61-5.36-10.9-7.69-10.9-7.69-.33-16.42-1.29-30.64-3.62-35.3s1.8-2.12,1.8-2.12Z" fill="#778292"/>
        <path d="M231.01,405.32c-2.28,1.68-5.37,29.71-5.16,33.53,4.11-3.23,16.47-3.32,21.44,2.39,0-16.21-1.39-27.25-3.09-34.88l-13.19-1.04Z" fill="#aab0c2"/>
        <polygon points="248.5 365.98 247.17 400.91 229.58 400.39 231.01 365.26 248.5 365.98" fill="#aab0c2"/>
        <polygon points="248.5 365.98 247.17 400.91 242.62 399.94 244.53 364.92 248.5 365.98" fill="#778292"/>
        <path d="M231.01,365.26c0,11.82,17.55,11.08,17.55,0,0-8.68-17.55-7.2-17.55,0Z" fill="#080604"/>
        <circle cx="238.4" cy="400.6" r="8.77" fill="#080604"/>
        <path id="path190-2" data-name="path190" d="M251.14,436.98c.1,1.67,1.01,2.98,2.03,2.92,1.02-.06,1.78-1.45,1.68-3.12-.1-1.67-1.01-2.98-2.03-2.92-1.02.06-1.78,1.45-1.68,3.12" fill="#aab0c2"/>
      </g>
    </g>
    <g id="foot-l">
      <path d="M261.58,454.47c-3.51-8.61-15.33-18.18-36.44-15.53-23.76,2.98-26.35,18.77-26.35,18.77-.16,2.36.94,1.64,4.22.86,3.28-.78,16.82-2.72,26.24-2.27,9.42.45,19.91,4.15,25.89,3.34,5.98-.81,7.24-3.18,6.43-5.17Z" fill="#080604"/>
      <path d="M263.7,457.9c-.53-1.24-.95-2.28-1.93-2.64-.16,1.84-1.93,3.65-6.62,4.37-5.98.92-16.47-3.28-25.89-3.79-9.42-.52-22.97,1.69-26.24,2.58-3.28.88-4.38,1.7-4.22-.98,0,0,.08-.49.29-1.27h0c-2.34,2.32-2.53,3.2-2.92,5.83s-1.22,5.6,1.46,6.77c2.68,1.17,51.32,4.68,65.3,0,1.66-.63,1.46-9.26.78-10.87Z" fill="#fff"/>
      <path d="M264.19,462.5c-1.08,1.04-3.06,1.91-6.3,2.36-6.63.92-18.26-3.28-28.71-3.79-10.45-.52-25.46,1.69-29.1,2.58-2.34.57-3.67,1.1-4.28.69-.22,1.87-.08,3.6,1.81,4.43,2.68,1.17,51.32,4.68,65.3,0,.96-.37,1.29-3.44,1.27-6.27Z" fill="#080604"/>
    </g>
  </g>
  <g id="cube-3">
    <g isolation="isolate">
      <polygon points="387.45 154.25 364.06 118.03 392.18 92.59 415.57 128.81 387.45 154.25" fill="#fcd006"/>
      <polygon points="415.57 128.81 392.18 92.59 417.89 87.04 441.28 123.26 415.57 128.81" fill="#fab10b"/>
      <polygon points="441.28 123.26 413.17 148.7 387.45 154.25 415.57 128.81 441.28 123.26" fill="#d69107"/>
    </g>
    <path d="M369.17,135.95c5.39,7.77,10.68,16.15,15.6,24.21,0,0-.69-.29-.69-.29,3.61-.75,7.22-1.49,10.86-2.14,3.63-.67,7.26-1.31,10.92-1.84-3.56,1.01-7.14,1.91-10.72,2.77-3.73.93-7.48,1.75-11.23,2.57-5.04-8.17-10.18-16.81-14.74-25.27h0Z" fill="#fcd006"/>
  </g>
  <g id="cube-2">
    <g isolation="isolate">
      <polygon points="207.12 74.5 184.02 39 223.08 8.14 246.17 43.65 207.12 74.5" fill="#fcd006"/>
      <polygon points="246.17 43.65 223.08 8.14 246.22 30.49 269.31 65.99 246.17 43.65" fill="#fab10b"/>
      <polygon points="269.31 65.99 230.25 96.85 207.12 74.5 246.17 43.65 269.31 65.99" fill="#d69107"/>
    </g>
    <path d="M215.13,86.94c5.63,4.81,10.98,9.94,16.22,15.16,0,0-.88-.02-.88-.02,5.5-4.83,11.07-9.57,16.85-14.06-5.15,5.2-10.54,10.15-16,15.02,0,0-.45.4-.45.4l-.43-.43c-5.27-5.2-10.45-10.49-15.32-16.08h0Z" fill="#fcd006"/>
  </g>
  <g id="cube-1">
    <g isolation="isolate">
      <polygon points="87.63 200.29 51.01 196.03 27.61 175.68 64.23 179.95 87.63 200.29" fill="#d69107"/>
      <polygon points="64.23 179.95 27.61 175.68 43.6 138.67 80.22 142.93 64.23 179.95" fill="#fcd006"/>
      <polygon points="103.62 163.27 87.63 200.29 64.23 179.95 80.22 142.93 103.62 163.27" fill="#fab10b"/>
    </g>
    <path d="M59.27,202.92c10.46.78,21.39,2.02,31.78,3.35,0,0-.68.39-.68.39,5.11-11.97,10.32-23.88,15.83-35.67-4.65,12.16-9.59,24.19-14.64,36.18,0,0-.19.45-.19.45l-.49-.06c-10.4-1.29-21.29-2.8-31.62-4.63h0Z" fill="#fcd006"/>
  </g>
</svg>