<?xml version="1.0" encoding="utf-8"?>
<!-- Generator: Adobe Illustrator 28.3.0, SVG Export Plug-In . SVG Version: 6.00 Build 0)  -->
<svg version="1.1" id="Layer_2" xmlns="http://www.w3.org/2000/svg" xmlns:xlink="http://www.w3.org/1999/xlink" x="0px" y="0px"
	 viewBox="0 0 1097.68 736.23" style="enable-background:new 0 0 1097.68 736.23;" xml:space="preserve">
<style type="text/css">
	.st0{fill:#FFF200;}
	.st1{fill:#16385A;}
	.st2{fill:#C8BF2E;}
	.st3{fill:#ABB3C1;}
	.st4{fill:#7E8794;}
	.st5{fill:#5F6B77;}
	.st6{fill:#FFD200;}
	.st7{fill:#FFFFFF;}
	.st8{fill:#FDB813;}
	.st9{fill:#E8941A;}
	.st10{fill:url(#SVGID_1_);}
	.st11{fill:url(#SVGID_00000150082107215318718530000009046175087532545719_);}
	.st12{fill:#995223;}
	.st13{fill:#ED1C24;}
	.st14{fill:none;stroke:#7E8794;stroke-width:16.2568;stroke-miterlimit:10;}
	.st15{fill:none;stroke:#7E8794;stroke-width:14.4839;stroke-miterlimit:10;}
	.st16{fill:none;stroke:#ABB3C1;stroke-width:6.8854;stroke-miterlimit:10;}
</style>

<g>
	<g>
		
			<ellipse transform="matrix(0.7071 -0.7071 0.7071 0.7071 -4.8022 631.4833)" class="st1" cx="759.87" cy="321.54" rx="244.57" ry="244.57"/>
	</g>
</g>
<ellipse class="st2" cx="622.71" cy="636.68" rx="143.84" ry="20.68"/>
<path class="st3" d="M444.62,386.58c5.09-2.54,13.08-8.35,18.16-22.16l2.54,37.05l-13.44,1.45L444.62,386.58z"/>
<g>
	<path class="st4" d="M355.53,476.4c4.17,7.75,7.82,8.83,27.96,7.43c20.14-1.39,55.57-17.52,70.55-28.84
		c11.34-8.57,19.26-27.15,10.35-47.28c-8.92-20.14-16.91-26.85-28.54-24.36c-11.63,2.49-64.18,15.47-74.07,16.8
		c-9.9,1.33-28.59,11.95-24.77,32.93C338.89,443.49,355.53,476.4,355.53,476.4z"/>
	<path d="M350.82,413.46c-8.64,2.36-15.45,11.44-7.4,34.46c5.71,16.31,15.4,32.56,24.15,30.63c12.54-2.77,14.43-22.85,9.88-39.53
		C372.9,422.36,359.46,411.1,350.82,413.46z"/>
	<g>
		<path class="st5" d="M450.12,401.34c-4.44-4.85-10.48-6.53-13.5-3.77c-3.01,2.76-1.86,8.93,2.58,13.78
			c4.44,4.84,10.48,6.53,13.5,3.77C455.72,412.35,454.56,406.18,450.12,401.34z"/>
	</g>
</g>
<path d="M282.97,432.71l42.5-8.72l6.54,4.36l-5.45,10.9c0,0,6.18,33.42,0.36,43.95s-24.7,17.07-31.24,6.9s-14.89-36.69-14.89-36.69
	L282.97,432.71z"/>
<path class="st3" d="M320.2,496.09c60.48-2.71,59.57-47.59,43.95-70.83l-29.79,8.35C335.46,454.68,335.82,479.02,320.2,496.09z"/>
<path class="st6" d="M729.01,482.33l1.44-283.25l14.87-26.7c29.49,14.9,56.36,28.93,75.75,44.62c1.19,38.95-4.75,177.45-9.06,231
	C794.91,455.08,770.71,468.08,729.01,482.33z"/>
<path class="st5" d="M805.12,392.42c-11.1,1.84-27.04-0.76-33.22-4.02c-6.18-3.27-12.65-13.76-16.35-33.42
	c-2.18-17.44,0.73-35.6,9.82-50.06c8.43-13.41,29.9-12.46,39.26-9.2c-8.44,9.72-16.38,19.3-17.68,58.81
	C786.95,354.52,789.66,383.01,805.12,392.42z"/>
<polygon points="537.22,534.53 609.54,473.09 568.86,467.57 516.13,510.75 531.2,533.35 "/>
<polygon class="st3" points="504.08,502.72 539.9,472.59 572.38,474.09 524.42,515.78 "/>
<path d="M533.56,581.08c-22.7,15.58-34.68,27.52-33.28,38.45c1.4,10.93,24.39,15.91,48.15,13.99c26.16-2.12,76.32-16.27,79.88-18.85
	s4.86-6.78-0.1-15.13c-4.97-8.35-50.04-11.73-50.04-11.73l-23.16-27.15l-12.18,7.31L533.56,581.08z"/>
<g>
	<path class="st7" d="M527.42,626.46c7.03,1.12,14.52,1.36,21.6,0.48c19.17-2.36,61.84-11.88,82.37-19.34
		c-0.19-1.54-0.74-3.33-1.76-5.43c-20.1,7.34-62.4,16.78-81.31,19.11c-18.62,2.29-37.14-3.53-43.61-10.25
		c-0.78-0.81-1.36-1.61-1.75-2.38c-1.24,2.12-2.06,4.19-2.48,6.21c0.04,0.04,0.08,0.09,0.12,0.13
		C505.95,620.53,516.09,624.65,527.42,626.46z"/>
</g>
<path class="st4" d="M562.74,595.87c-11.64-11.29-28.22-11.99-34.92-10.93l-16.93-43.73l28.22-3.88l28.92,56.08L562.74,595.87z"/>
<path class="st3" d="M532.76,539.44l29.98,56.43c7.05,8.82,23.28,22.57,44.09,21.16c20.81-1.41,34.56-5.29,18.69-29.98
	c-8.64-13.43-42.32-71.25-89.94-57.49L532.76,539.44z"/>
<path class="st4" d="M594.44,595.53c3.78,5.09,9.41,7.32,12.58,4.97c3.17-2.35,2.68-8.38-1.1-13.48c-3.78-5.09-9.41-7.32-12.58-4.97
	C590.17,584.41,590.66,590.44,594.44,595.53z"/>
<ellipse transform="matrix(0.8086 -0.5884 0.5884 0.8086 -209.3324 403.2591)" cx="515.12" cy="523.36" rx="17.83" ry="27.1"/>
<polygon points="649.49,543.87 727.95,477.21 683.82,471.22 626.6,518.08 642.95,542.6 "/>
<polygon class="st3" points="613.53,509.36 652.4,476.67 687.63,478.3 635.59,523.53 "/>
<path d="M645.51,594.38c-24.63,16.9-37.63,29.86-36.11,41.72s26.47,17.27,52.25,15.17c28.39-2.3,82.81-17.65,86.67-20.45
	s5.27-7.36-0.11-16.42s-54.3-12.73-54.3-12.73l-25.13-29.46l-13.21,7.93L645.51,594.38z"/>
<g>
	<path class="st7" d="M638.86,643.61c7.63,1.22,15.75,1.47,23.44,0.52c20.79-2.56,67.1-12.89,89.37-20.99
		c-0.2-1.67-0.81-3.62-1.91-5.89c-21.81,7.97-67.7,18.21-88.22,20.74c-20.2,2.49-40.29-3.83-47.32-11.12
		c-0.85-0.88-1.48-1.74-1.9-2.59c-1.34,2.31-2.24,4.55-2.69,6.74c0.05,0.05,0.09,0.1,0.13,0.15
		C615.56,637.18,626.57,641.65,638.86,643.61z"/>
</g>
<path class="st4" d="M677.17,610.43c-12.63-12.25-30.61-13.01-37.89-11.86l-18.37-47.45l30.61-4.21l31.38,60.85L677.17,610.43z"/>
<path class="st3" d="M644.65,549.2l32.53,61.23c7.65,9.57,25.26,24.49,47.83,22.96c22.58-1.53,37.5-5.74,20.28-32.53
	c-9.37-14.57-45.92-77.3-97.58-62.38L644.65,549.2z"/>
<path d="M796.33,368.92c0.3-2.2,19.21,4.09,19.21,4.09s-2.32,5.99-6.54,7.08S795.11,378.05,796.33,368.92z"/>
<path class="st8" d="M745.32,172.38c-69.19-6.36-253.05-2.06-282.5,0.48c-6.88,50.86-6.07,222.5-3.63,294.82
	c44.3,5.27,188.1,11.74,269.83,14.65C739.22,395.42,745.87,243.63,745.32,172.38z"/>
<path class="st7" d="M532.41,311.62c26.18,0,47.4-27.38,47.4-61.15s-21.22-61.15-47.4-61.15c-12.87,0-47.4,27.38-47.4,61.15
	c0,0-0.82,13.54-0.41,21.34c0.41,7.8,6.62,26.35,22.16,33.65C520.22,311.79,532.41,311.62,532.41,311.62z"/>
<path class="st7" d="M701.8,251.61c0,34.68-21.7,62.79-48.48,62.79s-48.48-28.11-48.48-62.79s22.78-58.79,49.55-58.79
	C681.17,192.82,701.8,216.93,701.8,251.61z"/>
<path d="M644.01,236.33c-20.17,0-36.52,18.28-36.52,40.83c0,2.26,0.17,4.47,0.49,6.63c0.25,0.76,0.53,1.51,0.84,2.21
	c0.67,1.51,1.46,2.97,2.31,4.38c0.42-0.07,0.87-0.06,1.24,0.05c0.77,0.21,1.23,0.69,1.69,1.3c0.89,1.2,1.76,2.41,2.63,3.63
	c0.74,1.04,1.44,2.2,2.3,3.15c0.04,0.04,0.08,0.08,0.1,0.11c0.11,0.14,0.22,0.28,0.33,0.41c0.22,0.27,0.45,0.55,0.67,0.82
	c0.44,0.52,0.89,1.03,1.36,1.52c1.02,1.08,2.1,2.08,3.25,3.02c0.23,0.19,0.39,0.42,0.52,0.66c0.78,0.41,1.58,0.79,2.4,1.08
	c2.72,0.96,5.57,1.14,8.43,1.23c2.97,0.09,5.93,0.12,8.88,0.55c3.02,0.44,5.97,1.28,8.86,2.25c2.63,0.88,5.22,1.87,7.82,2.81
	c11.29-6.95,18.94-20.37,18.94-35.79C680.53,254.61,664.18,236.33,644.01,236.33z"/>
<path d="M524.07,237.97c-17.91,0-32.42,17.82-32.42,39.81c0,7.19,1.57,13.92,4.28,19.74c1.63,1.58,3.12,3.3,4.81,4.81
	c0.22,0.2,0.45,0.39,0.68,0.58c0.02,0.02,0.06,0.05,0.09,0.08c-0.36-0.3,0.02,0.01,0.1,0.07c0.44,0.31,0.89,0.6,1.36,0.85
	c0.14,0.08,0.29,0.15,0.43,0.22c0.05,0.02,0.18,0.08,0.25,0.11c0.12,0.04,0.24,0.09,0.36,0.13c0.29,0.1,0.59,0.18,0.9,0.25
	c0.24,0.05,1.17,0.19,0.29,0.08c0.79,0.1,1.41,0.29,2,0.83c0.1,0.09,0.17,0.2,0.25,0.3c2.29,0.17,4.69-0.08,6.79-0.18
	c4.49-0.2,8.94,0.05,13.42,0.45c5.77,0.51,11.5,1.29,17.23,2.17c7.08-7.3,11.58-18.25,11.58-30.48
	C556.49,255.8,541.98,237.97,524.07,237.97z"/>
<path d="M816.85,324.28c-3.52-21.45-16.46-19.47-20.28-5.93l1.97,2.83l16.82,4.9L816.85,324.28z"/>
<path class="st4" d="M781.07,345.63c0.52,26.27,12.37,47.13,24.05,46.8c2.93-0.09,5.7-1.5,8.19-3.98l0-0.03
	c1.63-1.6,3.12-3.69,4.48-6.16l3.68-8.01c-2.94-0.56-5.64-0.97-8.07-1.3l-2.79,3.53c-1.36,1.14-2.82,1.8-4.35,1.85
	c-3.17,0.08-6.12-2.4-8.52-6.68c-3.45-6.06-5.76-15.72-5.98-26.67c-0.12-5.86,0.48-11.51,1.58-16.49
	c2.42-10.84,7.25-18.58,12.49-18.74c5.03-0.15,9.16,6.74,11.5,16.8c2.04,0.34,4.25,0.73,6.58,1.2
	c-2.29-14.29-7.06-25.69-13.31-30.07c-1.87-1.34-3.87-2.02-5.99-1.95c-0.4,0.01-0.81,0.05-1.23,0.12
	C792.22,297.68,780.55,320.28,781.07,345.63z"/>
<path class="st9" d="M750.49,196.46c-0.12,6.02,2.28,10.95,5.37,11.01c3.09,0.06,5.69-4.76,5.81-10.78
	c0.12-6.02-2.28-10.95-5.37-11.01C753.21,185.61,750.61,190.44,750.49,196.46z"/>
<path class="st9" d="M809.13,225.71c-0.23,4.53,1.17,8.29,3.13,8.39c1.96,0.1,3.73-3.5,3.96-8.03c0.23-4.53-1.17-8.29-3.13-8.39
	C811.13,217.58,809.36,221.17,809.13,225.71z"/>
<path class="st9" d="M742.29,458.96c-0.12,6.02,2.28,10.95,5.37,11.01c3.09,0.06,5.69-4.76,5.81-10.78
	c0.12-6.02-2.28-10.95-5.37-11.01C745.01,448.11,742.41,452.94,742.29,458.96z"/>
<g>
	
		<linearGradient id="SVGID_1_" gradientUnits="userSpaceOnUse" x1="10698.541" y1="3983.7563" x2="10787.582" y2="3983.7563" gradientTransform="matrix(-0.9927 -0.1206 -0.1206 0.9927 11790.9082 -2410.6606)">
		<stop  offset="0" style="stop-color:#E8941A"/>
		<stop  offset="1" style="stop-color:#FFD200"/>
	</linearGradient>
	<path class="st10" d="M648.41,189.16c20.27-3.13,38.06,9.38,46.05,29.88c-8.78-15.11-23.85-23.78-40.74-21.19
		c-26.09,4-46.55,33.21-45.7,65.27c0.5,18.54,8.01,33.96,19.3,42.89c-15.19-8.04-25.76-26.21-26.36-48.84
		C600.1,223.78,621.35,193.34,648.41,189.16z"/>
</g>
<g>
	
		<linearGradient id="SVGID_00000121254888150135897030000009584362520858936719_" gradientUnits="userSpaceOnUse" x1="10700.5391" y1="4323.2383" x2="10789.4756" y2="4323.2383" gradientTransform="matrix(-0.9882 -0.1531 -0.1531 0.9882 11803.9004 -2380.0662)">
		<stop  offset="0" style="stop-color:#E8941A"/>
		<stop  offset="1" style="stop-color:#FFD200"/>
	</linearGradient>
	<path style="fill:url(#SVGID_00000121254888150135897030000009584362520858936719_);" d="M528.37,188.36
		c20.34-2.45,37.69,10.64,45.01,31.39c-8.28-15.38-23.04-24.55-39.99-22.53c-26.17,3.12-47.55,31.62-47.73,63.68
		c-0.1,18.54,6.9,34.19,17.88,43.49c-14.9-8.54-24.88-27.04-24.74-49.67C479.02,221.32,501.22,191.63,528.37,188.36z"/>
</g>
<path class="st12" d="M610.98,389.66c-9.9,5-17.65,7.36-28.25,8.94C591.75,406.02,607.81,400.97,610.98,389.66L610.98,389.66z"/>
<path class="st8" d="M555.49,306.63c0,0-51.45-11.31-62.86,1.77l40.72,14.07L555.49,306.63z"/>
<path class="st8" d="M680.01,313.96c0,0-49.51-18-62.49-6.52l38.54,19.33L680.01,313.96z"/>
<path class="st4" d="M711.57,610.06c4.1,5.53,10.21,7.94,13.65,5.39c3.44-2.55,2.9-9.1-1.2-14.62c-4.1-5.53-10.21-7.94-13.65-5.39
	C706.94,597.99,707.47,604.54,711.57,610.06z"/>
<ellipse transform="matrix(0.8086 -0.5884 0.5884 0.8086 -193.1423 469.8157)" cx="625.51" cy="531.76" rx="19.34" ry="29.41"/>
<path d="M583.83,362.69c4.38-3.93,10.43-5.99,16.13-7.28c-0.02-0.05-0.03-0.09-0.04-0.14c-4.33-11.98-13.97-19.47-21.54-16.74
	c-7.57,2.73-10.19,14.66-5.86,26.64c1.47,4.08,3.57,7.64,5.98,10.45C579.4,370.9,580.05,366.09,583.83,362.69z"/>
<g>
	<path class="st13" d="M577.26,374.09c4.84,6.47,11.35,9.79,16.79,7.83c7.57-2.73,10.19-14.66,5.86-26.64
		c-0.13-0.36-0.27-0.72-0.41-1.07C587.98,353.68,577.98,360.96,577.26,374.09z"/>
</g>
<g>
	<path class="st4" d="M425.55,187.61c-4.33-18.24,9.88-40.57,29.42-40.87C439.05,155.69,430.43,170.44,425.55,187.61L425.55,187.61z
		"/>
</g>
<g>
	<path class="st4" d="M903.39,352.81c0.58,18.74-17.83,37.76-37.04,34.12C883.74,381.37,895.16,368.65,903.39,352.81L903.39,352.81z
		"/>
</g>
<g>
	<path class="st4" d="M412.47,162.27c-4.57-13.04,7.78-28.17,21.25-27.79c-4.71,4.14-8.91,7.72-12.61,12.48
		C417.39,151.68,414.83,156.48,412.47,162.27L412.47,162.27z"/>
</g>
<path class="st3" d="M906.13,290.32c3.27,77.92-66.11,93.9-109.16,80.28c-6.08-8.9-8.67-38.6,1.09-54.49
	c22.55,2.84,39.59,11.26,46.5-14.17C851.46,276.52,906.13,290.32,906.13,290.32z"/>
<g>
	<path class="st4" d="M854.06,174.42c9.4-2.93,10.59-6.74,25.58,10.15c14.99,16.89,30.65,57.52,33.75,78.3
		c2.34,15.73-5.88,36.77-28.78,45.87s-34.53,8.2-41.87-2.91c-7.34-11.1-39.13-62.63-45.99-71.45s-6.02-26.41,3.81-33
		C810.39,194.79,854.06,174.42,854.06,174.42z"/>
	<ellipse transform="matrix(0.8636 -0.5042 0.5042 0.8636 13.5001 444.9167)" cx="828.93" cy="197.51" rx="31.85" ry="16.5"/>
	<path d="M769.24,167.98l37.07-18.73c0,0,22.96,2.76,21.72,19.54s-13.43,37.61-24.25,37.11c-10.83-0.5-32.33-19.27-32.33-19.27
		L769.24,167.98z"/>
	<path class="st3" d="M820.68,205.92c42.96-28.83,48.83-43.76,38.89-67.99c-7.02-17.12-27.56-28.22-37.31-24.77l-33.87,15.82
		l0.67,2.93l37.7,32.41c0,0-1.02,17.65-1.63,19.42C824.53,185.52,820.68,205.92,820.68,205.92z"/>
	<g>
		<path class="st5" d="M868.24,302.64c-7.34,0.39-13.49-3-13.73-7.56c-0.24-4.57,5.51-8.59,12.85-8.98s13.49,3,13.73,7.56
			C881.33,298.23,875.58,302.25,868.24,302.64z"/>
	</g>
	<path class="st14" d="M786.36,136.93c34.06,6.9,52.51,37.01,33.54,58.67c-15.56,17.77-41.23,11.49-57.94-24.51"/>
</g>
<path class="st4" d="M828.37,319.42c-6.63-1.71-12.37,4.32-15.42,9.52c-7.42,11.75-9.27,39.91,6.54,45.52
	c2.43,0.37,4.62,0.31,7.02,0.37c-2.67-1.16-5.88-1.42-8.13-3.28C807.31,361.66,811.49,321.6,828.37,319.42L828.37,319.42z"/>
<path class="st4" d="M840.88,310.62c-5.7,5.03-3.73,14.07-0.84,20.12c6.19,14.15,30.96,33.4,45.96,22.34c1.85-2,3.16-4.05,4.71-6.23
	c-2.73,1.74-4.97,4.53-8.08,5.44C866.63,356.31,832.37,327.5,840.88,310.62L840.88,310.62z"/>
<path class="st15" d="M289.5,435.25c-31.6,69.2,68.65,78.46,38.69,0.54"/>
<path class="st3" d="M324.38,474.13l-53.4,24.7l-4.36-22.52l58.66-26.06C328.19,456.42,328.01,468.68,324.38,474.13z"/>
<g>
	<path class="st4" d="M270.98,498.83l53.4-24.7c1.65-2.47,2.62-6.08,2.92-9.85l-58.23,24.66L270.98,498.83z"/>
</g>
<path d="M109.46,527.17c27.99-16.69,61.27-29.46,83.88-38.59c22.61-9.13,51.69-11.43,64.46-11.53c12.77-0.1,17.03,6.27,8.29,15.53
	c-8.74,9.26-39.25,33.05-65.17,43.17c-25.92,10.13-82.7,27.32-96.34,27.77c-13.64,0.45-23.64-4.28-18.74-13
	C90.76,541.81,109.46,527.17,109.46,527.17z"/>
<path class="st4" d="M273.56,485.19l-2.2,38.07c-0.18,16.71-25.76,36.03-68.51,53.29c-42.75,17.26-75.07,21.32-86.31,9.22
	l-31.18-23.92c0,0,21.08,1.27,38.08-0.88s43.79-12.62,71.8-22.58S261.43,503.57,273.56,485.19z"/>
<path class="st4" d="M145.84,554.07c9.8-3.32,19.41-7.15,29.14-10.67c5.04-1.82,10.1-3.62,15.12-5.5c4.87-1.82,9.67-3.83,14.55-5.62
	c9.28-3.41,19.04-6.21,27.58-11.32c6.66-3.98,12.72-8.86,19.14-13.2c-8.84-6.22-39.48-1.31-73.29,12.34
	c-32.97,13.31-58.01,30.52-61.14,41.21C126.8,559.92,136.41,557.26,145.84,554.07z"/>
<ellipse transform="matrix(0.9273 -0.3744 0.3744 0.9273 -181.454 104.2956)" class="st16" cx="177.71" cy="519.17" rx="99.73" ry="23.76"/>
<g>
	<path class="st9" d="M217.58,470.13c10.17-13.8,27.26-53.16,16.35-58.12C225.94,408.38,218.31,429.81,217.58,470.13z"/>
	<path class="st9" d="M169.82,442.61c-9.29-15.26-23.61-33.42-29.42-28.33s12.35,25.43,21.8,31.6S179.99,459.32,169.82,442.61z"/>
	<path class="st9" d="M129.14,495.41c-17.56-9.65-44.75-21.18-49.01-7.28c-1.61,5.26,13.36,12.81,47.64,12.35
		C133.8,500.39,134,498.09,129.14,495.41z"/>
	<path class="st9" d="M90.9,515.08c-6.17,0.46-12.71,3.27-12.71,7.63s8.35,2.54,13.44,0.36S100.71,514.36,90.9,515.08z"/>
</g>
</svg>
