<svg xmlns="http://www.w3.org/2000/svg" viewBox="0 0 1200 380">
  <defs>
    <marker id="cf-arr-accent" markerWidth="9" markerHeight="9" refX="8" refY="4.5" orient="auto">
      <path d="M0 0 L9 4.5 L0 9 Z" fill="#c14a26" />
    </marker>
    <style>
      .box  { fill: #fffff8; stroke: #333; stroke-width: 1.4; }
      .link { stroke: #c14a26; stroke-width: 1.6; fill: none; }
      .head { font: italic 17px Georgia, "et-book", serif; fill: #111; text-anchor: middle; }
      .sub  { font: 11px "IBM Plex Mono", Consolas, monospace; fill: #555; text-anchor: middle; }
      .edge { font: italic 12px Georgia, "et-book", serif; fill: #c14a26; text-anchor: middle; }
    </style>
  </defs>

  <g>
    <rect class="box" x="40" y="60" width="200" height="80" rx="4" />
    <text class="head" x="140" y="92">upstream sources</text>
    <text class="sub"  x="140" y="115">github, pypi, tarballs</text>
  </g>

  <g>
    <rect class="box" x="40" y="220" width="200" height="80" rx="4" />
    <text class="head" x="140" y="252">recipe</text>
    <text class="sub"  x="140" y="275">recipe.yaml, feedstock</text>
  </g>

  <!-- recipe references upstream sources -->
  <path class="link" d="M 140 220 L 140 142" marker-end="url(#cf-arr-accent)" />
  <text class="edge" x="195" y="185">references</text>

  <!-- recipe drives the build -->
  <path class="link" d="M 240 260 C 320 260 340 195 420 195" marker-end="url(#cf-arr-accent)" />
  <text class="edge" x="335" y="240">build</text>

  <g>
    <rect class="box" x="420" y="140" width="220" height="100" rx="4" />
    <text class="head" x="530" y="172">conda-forge CI</text>
    <text class="sub"  x="530" y="197">linux, osx, win</text>
    <text class="sub"  x="530" y="215">x86_64, arm64</text>
  </g>

  <path class="link" d="M 640 190 L 770 190" marker-end="url(#cf-arr-accent)" />
  <text class="edge" x="705" y="180">produces</text>

  <g>
    <rect class="box" x="770" y="140" width="180" height="100" rx="4" />
    <text class="head" x="860" y="172">.conda</text>
    <text class="sub"  x="860" y="197">numpy-2.3-h0.conda</text>
    <text class="sub"  x="860" y="215">btop-1.4.5-h0.conda</text>
  </g>

  <path class="link" d="M 950 190 L 1060 190" marker-end="url(#cf-arr-accent)" />
  <text class="edge" x="1005" y="180">publish</text>

  <g transform="translate(1060, 145)">
    <ellipse class="box" cx="60" cy="8" rx="60" ry="10" />
    <path    class="box" d="M 0 8 L 0 82 A 60 10 0 0 0 120 82 L 120 8" />
    <ellipse class="box" cx="60" cy="8" rx="60" ry="10" />
    <text class="head" x="60" y="48">channel</text>
    <text class="sub"  x="60" y="68">conda-forge</text>
  </g>
</svg>
